<?xml version="1.0" encoding="UTF-8" standalone="no"?>
<!-- Created with Inkscape (http://www.inkscape.org/) -->
<svg xmlns:dc="http://purl.org/dc/elements/1.1/" xmlns:cc="http://web.resource.org/cc/"
	xmlns:rdf="http://www.w3.org/1999/02/22-rdf-syntax-ns#" xmlns:svg="http://www.w3.org/2000/svg"
	xmlns="http://www.w3.org/2000/svg" xmlns:xlink="http://www.w3.org/1999/xlink"
	xmlns:sodipodi="http://sodipodi.sourceforge.net/DTD/sodipodi-0.dtd"
	xmlns:inkscape="http://www.inkscape.org/namespaces/inkscape" width="1052.3622"
	height="744.09448" id="svg2" sodipodi:version="0.32" inkscape:version="0.45.1"
	sodipodi:docbase="D:\Old_Pc\Dati\Gianluca\Documentazione\Botanica\Wiki\SalernoTrasporti"
	sodipodi:docname="Certificato.svg" inkscape:output_extension="org.inkscape.output.svg.inkscape"
	version="1.0"
	inkscape:export-filename="D:\Old_Pc\Dati\Gianluca\Documentazione\Botanica\Wiki\SalernoTrasporti\Certificato.png"
	inkscape:export-xdpi="90" inkscape:export-ydpi="90">
	<defs id="defs4">
		<linearGradient id="linearGradient15515">
			<stop id="stop15547" offset="0" style="stop-color:#0000ff;stop-opacity:0;" />
			<stop style="stop-color:#0000ff;stop-opacity:0.49803922;"
				offset="0.5" id="stop15549" />
			<stop id="stop15551" offset="0.75"
				style="stop-color:#0000ff;stop-opacity:0.74901961;" />
			<stop id="stop15519" offset="1" style="stop-color:#0000ff;stop-opacity:1;" />
		</linearGradient>
		<filter id="filter7120">
			<feGaussianBlur id="feGaussianBlur7122" stdDeviation="3.92425"
				inkscape:collect="always" />
		</filter>
		<linearGradient inkscape:collect="always" xlink:href="#linearGradient15515"
			id="linearGradient15327" x1="335.53162" y1="421.85947" x2="659.68982"
			y2="421.85947" gradientUnits="userSpaceOnUse" spreadMethod="pad" />
	</defs>
	<sodipodi:namedview id="base" pagecolor="#ffffff"
		bordercolor="#666666" borderopacity="1.0" inkscape:pageopacity="0.0"
		inkscape:pageshadow="2" inkscape:zoom="0.70135144" inkscape:cx="426.23846"
		inkscape:cy="392.59744" inkscape:document-units="px"
		inkscape:current-layer="layer1" inkscape:window-width="1024"
		inkscape:window-height="742" inkscape:window-x="0" inkscape:window-y="0"
		width="1052.3622px" height="744.09449px" />
	<metadata id="metadata7">
		<rdf:RDF>
			<cc:Work rdf:about="">
				<dc:format>image/svg+xml</dc:format>
				<dc:type rdf:resource="http://purl.org/dc/dcmitype/StillImage" />
			</cc:Work>
		</rdf:RDF>
	</metadata>
	<g inkscape:label="Livello 1" inkscape:groupmode="layer" id="layer1">
		<rect
			style="opacity:1;fill:none;fill-opacity:1;stroke:#000000;stroke-width:1.85624957;stroke-linecap:butt;stroke-miterlimit:4;stroke-dasharray:none;stroke-dashoffset:0;stroke-opacity:1"
			id="rect2160" width="262.57181" height="333.69263" x="36.131142" y="228.41768" />
		<rect
			style="opacity:1;fill:none;fill-opacity:1;stroke:#000000;stroke-width:1.98802114;stroke-linecap:butt;stroke-miterlimit:4;stroke-dasharray:3.97604226, 1.98802113;stroke-dashoffset:0;stroke-opacity:1"
			id="rect4158" width="221.17871" height="159.21585" x="53.07666" y="385.95648" />
		<g transform="matrix(0.2221894,0,0,0.1517321,77.862613,380.85206)"
			id="g5281" style="fill:#008c00;fill-opacity:1">
			<g transform="translate(0,1.5006256)" id="g7124"
				style="fill:#008c00;fill-opacity:1">
				<path
					d="M 201.4375,82.0625 C 137.56321,82.0625 85.71875,155.04035 85.71875,244.9375 C 85.71875,334.83465 137.56321,407.78126 201.4375,407.78125 C 252.26296,407.78125 295.46817,361.60276 311,297.4375 L 405.65625,297.4375 L 438.03125,258.21875 L 459.375,258.21875 L 473.75,272.59375 L 508.21875,272.59375 L 513.9375,262.71875 L 547.15625,262.71875 L 562.46875,289.25 L 590.5625,289.25 L 608.78125,271.03125 L 632.96875,271.03125 L 654,292.0625 L 680.40625,292.0625 L 733.0625,239.40625 L 733.0625,223.875 L 721.25,220.71875 L 689.71875,189.1875 L 310.1875,189.1875 C 293.9998,126.72349 251.39799,82.062503 201.4375,82.0625 z M 157.15625,187.125 C 177.65911,187.12501 194.28125,213.02838 194.28125,244.9375 C 194.28125,276.84662 177.65911,302.75 157.15625,302.75 C 136.6534,302.75 120,276.84662 120,244.9375 C 120,213.02837 136.65339,187.125 157.15625,187.125 z "
					style="opacity:0.56170211;fill:#008c00;fill-opacity:1;stroke:#000000;stroke-width:4;stroke-linecap:butt;stroke-linejoin:miter;stroke-miterlimit:4;stroke-dasharray:none;stroke-dashoffset:0;stroke-opacity:1;filter:url(#filter7120)"
					id="path6137" />
				<path
					d="M 191.4375,88.0625 C 127.56321,88.0625 75.71875,161.04035 75.71875,250.9375 C 75.71875,340.83465 127.56321,413.78126 191.4375,413.78125 C 242.26296,413.78125 285.46817,367.60276 301,303.4375 L 395.65625,303.4375 L 428.03125,264.21875 L 449.375,264.21875 L 463.75,278.59375 L 498.21875,278.59375 L 503.9375,268.71875 L 537.15625,268.71875 L 552.46875,295.25 L 580.5625,295.25 L 598.78125,277.03125 L 622.96875,277.03125 L 644,298.0625 L 670.40625,298.0625 L 723.0625,245.40625 L 723.0625,229.875 L 711.25,226.71875 L 679.71875,195.1875 L 300.1875,195.1875 C 283.9998,132.72349 241.39799,88.062503 191.4375,88.0625 z M 147.15625,193.125 C 167.65911,193.12501 184.28125,219.02838 184.28125,250.9375 C 184.28125,282.84662 167.65911,308.75 147.15625,308.75 C 126.6534,308.75 110,282.84662 110,250.9375 C 110,219.02837 126.65339,193.125 147.15625,193.125 z "
					style="opacity:1;fill:#008c00;fill-opacity:1;stroke:#000000;stroke-width:4;stroke-linecap:butt;stroke-linejoin:miter;stroke-miterlimit:4;stroke-dasharray:none;stroke-dashoffset:0;stroke-opacity:1"
					id="path2221" />
				<path
					d="M 711.25,226.71875 L 689.90001,205.36876 L 691.43425,206.34578 C 691.43425,206.34578 411.28898,209.13607 376.68936,209.13607 C 342.08975,209.13607 335.95111,226.71875 335.95111,226.71875 L 711.25,226.71875 z "
					style="opacity:1;fill:#008c00;fill-opacity:1;stroke:#000000;stroke-width:1.89999998;stroke-linecap:butt;stroke-linejoin:miter;stroke-miterlimit:4;stroke-dasharray:none;stroke-dashoffset:0;stroke-opacity:1"
					id="path4186" />
				<path
					d="M 191.4375,88.0625 C 127.56321,88.0625 75.71875,161.04035 75.71875,250.9375 C 75.71875,340.83465 127.56321,413.78126 191.4375,413.78125 C 242.26296,413.78125 285.46817,367.60276 301,303.4375 L 395.65625,303.4375 L 428.03125,264.21875 L 449.375,264.21875 L 463.75,278.59375 L 498.21875,278.59375 L 503.9375,268.71875 L 537.15625,268.71875 L 552.46875,295.25 L 580.5625,295.25 L 598.78125,277.03125 L 622.96875,277.03125 L 644,298.0625 L 670.40625,298.0625 L 723.0625,245.40625 L 723.0625,229.875 L 711.25,226.71875 L 679.71875,195.1875 L 300.1875,195.1875 C 283.9998,132.72349 241.39799,88.062503 191.4375,88.0625 z M 147.15625,193.125 C 167.65911,193.12501 184.28125,219.02838 184.28125,250.9375 C 184.28125,282.84662 167.65911,308.75 147.15625,308.75 C 126.6534,308.75 110,282.84662 110,250.9375 C 110,219.02837 126.65339,193.125 147.15625,193.125 z "
					style="opacity:1;fill:#008c00;fill-opacity:1;stroke:#000000;stroke-width:4;stroke-linecap:butt;stroke-linejoin:miter;stroke-miterlimit:4;stroke-dasharray:none;stroke-dashoffset:0;stroke-opacity:1"
					id="path5166" />
			</g>
		</g>
		<rect
			style="opacity:1;fill:none;fill-opacity:1;stroke:#000000;stroke-width:1.85624957;stroke-linecap:butt;stroke-miterlimit:4;stroke-dasharray:none;stroke-dashoffset:0;stroke-opacity:1"
			id="rect11178" width="262.57181" height="333.69263" x="726.43854" y="191.897" />
		<rect
			style="opacity:1;fill:none;fill-opacity:1;stroke:#000000;stroke-width:1.98802114;stroke-linecap:butt;stroke-miterlimit:4;stroke-dasharray:3.97604226, 1.98802113;stroke-dashoffset:0;stroke-opacity:1"
			id="rect11204" width="221.17871" height="159.21585" x="743.38403" y="349.43579" />
		<g transform="matrix(0.2221894,0,0,0.1517321,768.17003,344.33138)"
			id="g11218" style="fill:#008c00;fill-opacity:1">
			<g transform="translate(0,1.5006256)" id="g11220"
				style="fill:#008c00;fill-opacity:1">
				<path
					d="M 201.4375,82.0625 C 137.56321,82.0625 85.71875,155.04035 85.71875,244.9375 C 85.71875,334.83465 137.56321,407.78126 201.4375,407.78125 C 252.26296,407.78125 295.46817,361.60276 311,297.4375 L 405.65625,297.4375 L 438.03125,258.21875 L 459.375,258.21875 L 473.75,272.59375 L 508.21875,272.59375 L 513.9375,262.71875 L 547.15625,262.71875 L 562.46875,289.25 L 590.5625,289.25 L 608.78125,271.03125 L 632.96875,271.03125 L 654,292.0625 L 680.40625,292.0625 L 733.0625,239.40625 L 733.0625,223.875 L 721.25,220.71875 L 689.71875,189.1875 L 310.1875,189.1875 C 293.9998,126.72349 251.39799,82.062503 201.4375,82.0625 z M 157.15625,187.125 C 177.65911,187.12501 194.28125,213.02838 194.28125,244.9375 C 194.28125,276.84662 177.65911,302.75 157.15625,302.75 C 136.6534,302.75 120,276.84662 120,244.9375 C 120,213.02837 136.65339,187.125 157.15625,187.125 z "
					style="opacity:0.56170211;fill:#008c00;fill-opacity:1;stroke:#000000;stroke-width:4;stroke-linecap:butt;stroke-linejoin:miter;stroke-miterlimit:4;stroke-dasharray:none;stroke-dashoffset:0;stroke-opacity:1;filter:url(#filter7120)"
					id="path11222" />
				<path
					d="M 191.4375,88.0625 C 127.56321,88.0625 75.71875,161.04035 75.71875,250.9375 C 75.71875,340.83465 127.56321,413.78126 191.4375,413.78125 C 242.26296,413.78125 285.46817,367.60276 301,303.4375 L 395.65625,303.4375 L 428.03125,264.21875 L 449.375,264.21875 L 463.75,278.59375 L 498.21875,278.59375 L 503.9375,268.71875 L 537.15625,268.71875 L 552.46875,295.25 L 580.5625,295.25 L 598.78125,277.03125 L 622.96875,277.03125 L 644,298.0625 L 670.40625,298.0625 L 723.0625,245.40625 L 723.0625,229.875 L 711.25,226.71875 L 679.71875,195.1875 L 300.1875,195.1875 C 283.9998,132.72349 241.39799,88.062503 191.4375,88.0625 z M 147.15625,193.125 C 167.65911,193.12501 184.28125,219.02838 184.28125,250.9375 C 184.28125,282.84662 167.65911,308.75 147.15625,308.75 C 126.6534,308.75 110,282.84662 110,250.9375 C 110,219.02837 126.65339,193.125 147.15625,193.125 z "
					style="opacity:1;fill:#008c00;fill-opacity:1;stroke:#000000;stroke-width:4;stroke-linecap:butt;stroke-linejoin:miter;stroke-miterlimit:4;stroke-dasharray:none;stroke-dashoffset:0;stroke-opacity:1"
					id="path11224" />
				<path
					d="M 711.25,226.71875 L 689.90001,205.36876 L 691.43425,206.34578 C 691.43425,206.34578 411.28898,209.13607 376.68936,209.13607 C 342.08975,209.13607 335.95111,226.71875 335.95111,226.71875 L 711.25,226.71875 z "
					style="opacity:1;fill:#008c00;fill-opacity:1;stroke:#000000;stroke-width:1.89999998;stroke-linecap:butt;stroke-linejoin:miter;stroke-miterlimit:4;stroke-dasharray:none;stroke-dashoffset:0;stroke-opacity:1"
					id="path11226" />
				<path
					d="M 191.4375,88.0625 C 127.56321,88.0625 75.71875,161.04035 75.71875,250.9375 C 75.71875,340.83465 127.56321,413.78126 191.4375,413.78125 C 242.26296,413.78125 285.46817,367.60276 301,303.4375 L 395.65625,303.4375 L 428.03125,264.21875 L 449.375,264.21875 L 463.75,278.59375 L 498.21875,278.59375 L 503.9375,268.71875 L 537.15625,268.71875 L 552.46875,295.25 L 580.5625,295.25 L 598.78125,277.03125 L 622.96875,277.03125 L 644,298.0625 L 670.40625,298.0625 L 723.0625,245.40625 L 723.0625,229.875 L 711.25,226.71875 L 679.71875,195.1875 L 300.1875,195.1875 C 283.9998,132.72349 241.39799,88.062503 191.4375,88.0625 z M 147.15625,193.125 C 167.65911,193.12501 184.28125,219.02838 184.28125,250.9375 C 184.28125,282.84662 167.65911,308.75 147.15625,308.75 C 126.6534,308.75 110,282.84662 110,250.9375 C 110,219.02837 126.65339,193.125 147.15625,193.125 z "
					style="opacity:1;fill:#008c00;fill-opacity:1;stroke:#000000;stroke-width:4;stroke-linecap:butt;stroke-linejoin:miter;stroke-miterlimit:4;stroke-dasharray:none;stroke-dashoffset:0;stroke-opacity:1"
					id="path11228" />
			</g>
		</g>
		<rect
			style="opacity:1;fill:#f58b8b;fill-opacity:1;stroke:#000000;stroke-width:1.43350494;stroke-linecap:butt;stroke-miterlimit:4;stroke-dasharray:2.86700984, 1.43350491;stroke-dashoffset:0;stroke-opacity:1"
			id="rect11230" width="266.7457" height="71.660416" x="724.35162" y="534.92126" />
		<switch>
			<text xml:space="preserve" style="font-size:18px" x="733" y="576" systemLanguage="it">Firma del soggetto certifcatore</text>
			<text xml:space="preserve" style="font-size:18px" x="775" y="576" systemLanguage="zh">認證機構的數位簽章</text>
			<text xml:space="preserve" style="font-size:18px" x="800" y="565">Digital Signature</text>
		</switch>
		<switch>
			<text xml:space="preserve" style="font-size:18px" x="733" y="576" systemLanguage="it"></text>
			<text xml:space="preserve" style="font-size:18px" x="733" y="576" systemLanguage="zh"></text>
			<text xml:space="preserve" style="font-size:18px" x="760" y="588">of the Certificate Authority</text>
		</switch>
		<rect
			style="opacity:1;fill:none;fill-opacity:1;stroke:#ff0000;stroke-width:3.78894496;stroke-linecap:butt;stroke-miterlimit:4;stroke-dasharray:22.73366891, 3.78894482;stroke-dashoffset:0;stroke-opacity:1"
			id="rect12207" width="328.18436" height="476.21906" x="696.43335" y="161.76721" />
		<path id="path1872"
			style="fill:url(#linearGradient15327);fill-opacity:1.0;fill-rule:evenodd;stroke:#858585;stroke-width:6.25507593;stroke-linecap:butt;stroke-linejoin:miter;stroke-miterlimit:4;stroke-dasharray:none;stroke-opacity:1"
			d="M 338.65915,421.85886 L 338.65915,439.74044 L 562.14869,439.74044 L 562.14869,462.53945 L 656.56228,421.79111 M 338.66601,421.86005 L 338.66601,403.97848 L 562.15553,403.97848 L 562.15553,381.17947 L 656.51589,423.3296"
			sodipodi:nodetypes="cccccccccc" />
		<g transform="matrix(0,0.179493,-0.1685282,0,518.91291,305.05748)"
			id="g10153" style="fill:#f4373c;fill-opacity:1">
			<g transform="translate(0,1.5006256)" id="g10155"
				style="fill:#f4373c;fill-opacity:1">
				<path
					d="M 201.4375,82.0625 C 137.56321,82.0625 85.71875,155.04035 85.71875,244.9375 C 85.71875,334.83465 137.56321,407.78126 201.4375,407.78125 C 252.26296,407.78125 295.46817,361.60276 311,297.4375 L 405.65625,297.4375 L 438.03125,258.21875 L 459.375,258.21875 L 473.75,272.59375 L 508.21875,272.59375 L 513.9375,262.71875 L 547.15625,262.71875 L 562.46875,289.25 L 590.5625,289.25 L 608.78125,271.03125 L 632.96875,271.03125 L 654,292.0625 L 680.40625,292.0625 L 733.0625,239.40625 L 733.0625,223.875 L 721.25,220.71875 L 689.71875,189.1875 L 310.1875,189.1875 C 293.9998,126.72349 251.39799,82.062503 201.4375,82.0625 z M 157.15625,187.125 C 177.65911,187.12501 194.28125,213.02838 194.28125,244.9375 C 194.28125,276.84662 177.65911,302.75 157.15625,302.75 C 136.6534,302.75 120,276.84662 120,244.9375 C 120,213.02837 136.65339,187.125 157.15625,187.125 z "
					style="opacity:0.56170211;fill:#f4373c;fill-opacity:1;stroke:#000000;stroke-width:4;stroke-linecap:butt;stroke-linejoin:miter;stroke-miterlimit:4;stroke-dasharray:none;stroke-dashoffset:0;stroke-opacity:1;filter:url(#filter7120)"
					id="path10157" />
				<path
					d="M 191.4375,88.0625 C 127.56321,88.0625 75.71875,161.04035 75.71875,250.9375 C 75.71875,340.83465 127.56321,413.78126 191.4375,413.78125 C 242.26296,413.78125 285.46817,367.60276 301,303.4375 L 395.65625,303.4375 L 428.03125,264.21875 L 449.375,264.21875 L 463.75,278.59375 L 498.21875,278.59375 L 503.9375,268.71875 L 537.15625,268.71875 L 552.46875,295.25 L 580.5625,295.25 L 598.78125,277.03125 L 622.96875,277.03125 L 644,298.0625 L 670.40625,298.0625 L 723.0625,245.40625 L 723.0625,229.875 L 711.25,226.71875 L 679.71875,195.1875 L 300.1875,195.1875 C 283.9998,132.72349 241.39799,88.062503 191.4375,88.0625 z M 147.15625,193.125 C 167.65911,193.12501 184.28125,219.02838 184.28125,250.9375 C 184.28125,282.84662 167.65911,308.75 147.15625,308.75 C 126.6534,308.75 110,282.84662 110,250.9375 C 110,219.02837 126.65339,193.125 147.15625,193.125 z "
					style="opacity:1;fill:#f4373c;fill-opacity:1;stroke:#000000;stroke-width:4;stroke-linecap:butt;stroke-linejoin:miter;stroke-miterlimit:4;stroke-dasharray:none;stroke-dashoffset:0;stroke-opacity:1"
					id="path10159" />
				<path
					d="M 711.25,226.71875 L 689.90001,205.36876 L 691.43425,206.34578 C 691.43425,206.34578 411.28898,209.13607 376.68936,209.13607 C 342.08975,209.13607 335.95111,226.71875 335.95111,226.71875 L 711.25,226.71875 z "
					style="opacity:1;fill:#f4373c;fill-opacity:1;stroke:#000000;stroke-width:1.89999998;stroke-linecap:butt;stroke-linejoin:miter;stroke-miterlimit:4;stroke-dasharray:none;stroke-dashoffset:0;stroke-opacity:1"
					id="path10161" />
				<path
					d="M 191.4375,88.0625 C 127.56321,88.0625 75.71875,161.04035 75.71875,250.9375 C 75.71875,340.83465 127.56321,413.78126 191.4375,413.78125 C 242.26296,413.78125 285.46817,367.60276 301,303.4375 L 395.65625,303.4375 L 428.03125,264.21875 L 449.375,264.21875 L 463.75,278.59375 L 498.21875,278.59375 L 503.9375,268.71875 L 537.15625,268.71875 L 552.46875,295.25 L 580.5625,295.25 L 598.78125,277.03125 L 622.96875,277.03125 L 644,298.0625 L 670.40625,298.0625 L 723.0625,245.40625 L 723.0625,229.875 L 711.25,226.71875 L 679.71875,195.1875 L 300.1875,195.1875 C 283.9998,132.72349 241.39799,88.062503 191.4375,88.0625 z M 147.15625,193.125 C 167.65911,193.12501 184.28125,219.02838 184.28125,250.9375 C 184.28125,282.84662 167.65911,308.75 147.15625,308.75 C 126.6534,308.75 110,282.84662 110,250.9375 C 110,219.02837 126.65339,193.125 147.15625,193.125 z "
					style="opacity:1;fill:#f4373c;fill-opacity:1;stroke:#000000;stroke-width:4;stroke-linecap:butt;stroke-linejoin:miter;stroke-miterlimit:4;stroke-dasharray:none;stroke-dashoffset:0;stroke-opacity:1"
					id="path10163" />
			</g>
		</g>
		<switch>
			<text xml:space="preserve" systemLanguage="it"
				style="font-size:8.52258873px;text-align:center;text-anchor:middle;fill:#000080"
				x="28.40012" y="140.51183" id="text2268" transform="scale(1.0620017,0.9416181)"><tspan
				sodipodi:role="line" id="tspan2270" x="28.40012" y="140.51183"
				style="text-align:start;text-anchor:start"><tspan x="28.40012" y="140.51183"
				style="font-size:24.85755157px;text-align:start;text-anchor:start"
				id="tspan2272">Documento con identità </tspan></tspan><tspan
				sodipodi:role="line" id="tspan2274" x="49.810627" y="171.58376"
				style="text-align:start;text-anchor:start"><tspan x="49.810627" y="171.58376"
				style="font-size:24.85755157px;text-align:start;text-anchor:start"
				id="tspan2276">e chiave pubblica di </tspan></tspan><tspan sodipodi:role="line"
				id="tspan2278" x="93.384178" y="202.6557" style="text-align:start;text-anchor:start"><tspan x="93.384178"
				y="202.6557" style="font-size:24.85755157px;text-align:start;text-anchor:start"
				id="tspan2280">Mario Rossi</tspan></tspan></text>
			<text xml:space="preserve" systemLanguage="zh"
				style="font-size:8.52258873px;text-align:center;text-anchor:middle;fill:#000080"
				x="28.40012" y="140.51183" id="text2268" transform="scale(1.0620017,0.9416181)"><tspan
				sodipodi:role="line" id="tspan2270" x="28.40012" y="140.51183"
				style="text-align:start;text-anchor:start"><tspan x="28.40012" y="140.51183"
				style="font-size:24.85755157px;text-align:start;text-anchor:start"
				id="tspan2272"> </tspan></tspan><tspan sodipodi:role="line" id="tspan2274"
				x="49.810627" y="171.58376" style="text-align:start;text-anchor:start"><tspan x="40" y="171.58376"
				style="font-size:32px;text-align:start;text-anchor:start;font-weight:bold"
				id="tspan2276">鮑伯的身份資料</tspan></tspan><tspan sodipodi:role="line" id="tspan2278"
				x="95" y="210" style="text-align:start;text-anchor:start"><tspan x="70" y="210"
				style="font-size:32px;text-align:start;text-anchor:start;font-weight:bold"
				id="tspan2280">及公開金鑰</tspan></tspan></text>
			<text xml:space="preserve" style="font-size:8.52258873px;text-align:center;text-anchor:middle;fill:#000080" x="28.40012" y="140.51183" id="text2268">
				<tspan sodipodi:role="line" x="50" y="171.58376" style="font-size:24px;text-align:start;text-anchor:start" id="tspan2276">Identity Information and </tspan>
				<tspan sodipodi:role="line" x="40" y="202.6557" style="font-size:24px;text-align:start;text-anchor:start" id="tspan2280">Public Key of Mario Rossi</tspan>
			</text>
		</switch>
		<switch>
			<text xml:space="preserve" systemLanguage="it"
				style="font-size:45px;text-align:center;text-anchor:middle;fill:#aa0000"
				x="804.25177" y="85.388107" id="text2282" transform="scale(1.0620017,0.9416181)"><tspan
				sodipodi:role="line" id="tspan2284" x="810.492" y="85.388107"><tspan x="804.25177"
				y="85.388107" id="tspan2286">Certificato di </tspan></tspan><tspan
				sodipodi:role="line" id="tspan2288" x="810.492" y="141.63811"><tspan x="810.492"
				y="141.63811" id="tspan2290">Mario Rossi</tspan></tspan></text>
			<text xml:space="preserve" systemLanguage="zh"
				style="font-size:45px;text-align:center;text-anchor:middle;fill:#aa0000"
				x="804.25177" y="85.388107" id="text2282" transform="scale(1.0620017,0.9416181)"><tspan
				sodipodi:role="line" id="tspan2284" x="810.492" y="85.388107"><tspan x="804.25177"
				y="85.388107" id="tspan2286"> </tspan></tspan><tspan sodipodi:role="line"
				id="tspan2288" x="810.492" y="141.63811"><tspan x="810" y="141.63811" id="tspan2290">鮑伯的數位證書</tspan></tspan></text>
			<text xml:space="preserve"
				style="font-size:32px;text-align:center;text-anchor:middle;fill:#aa0000"
				x="860" y="140" id="text2282">Certificate of Mario Rossi</text>
		</switch>
		<switch>
			<text xml:space="preserve" systemLanguage="it"
				style="font-size:8.52258873px;text-align:center;text-anchor:middle;fill:#000080"
				x="374.18097" y="247.05505" id="text2292" transform="scale(1.0620017,0.9416181)"><tspan
				sodipodi:role="line" id="tspan2294" x="374.18097" y="247.05505"
				style="text-align:start;text-anchor:start"><tspan x="374.18097" y="247.05505"
				style="font-size:22.72690392px;text-align:start;text-anchor:start"
				id="tspan2296" dx="0 0 0 0 0 0 0 0 0 0 0 0 0 0 0">Chiave Privata</tspan></tspan><tspan
				sodipodi:role="line" id="tspan2300" x="432.95135" y="275.46368"
				style="text-align:start;text-anchor:start"><tspan x="432.95135" y="275.46368"
				style="font-size:22.72690392px;text-align:start;text-anchor:start"
				id="tspan2302" dx="0 0 0 0 0">del </tspan></tspan><tspan sodipodi:role="line"
				id="tspan2306" x="342.59857" y="303.87231" style="text-align:start;text-anchor:start"><tspan x="342.59857"
				y="303.87231" style="font-size:22.72690392px;text-align:start;text-anchor:start"
				id="tspan2308">soggetto certificatore</tspan></tspan></text>
			<text xml:space="preserve" systemLanguage="zh"
				style="font-size:8.52258873px;text-align:center;text-anchor:middle;fill:#000080"
				x="374.18097" y="247.05505" id="text2292" transform="scale(1.0620017,0.9416181)">
			<tspan x="300" y="270"
				style="font-size:30px;text-align:start;text-anchor:start;font-weight:bold"
				id="tspan2302">認證機構核實鮑伯身份後</tspan>
			<tspan x="300" y="305"
				style="font-size:30px;text-align:start;text-anchor:start;font-weight:bold"
				id="tspan2308">使用認證機構的私鑰加密</tspan>
		</text>
			<text xml:space="preserve" style="font-size:8.52258873px;text-align:center;text-anchor:middle;fill:#000080" x="374.18097" y="247.05505" id="text2292">
				<tspan x="330" y="245" style="font-size:24px;text-align:start;text-anchor:start" id="tspan2296">Certificate Authority</tspan>
				<tspan x="330" y="275" style="font-size:24px;text-align:start;text-anchor:start" id="tspan2302">verifies the identity of Mario Rossi</tspan>
				<tspan x="330" y="305" style="font-size:24px;text-align:start;text-anchor:start" id="tspan2308">and encrypts with its Private Key</tspan>
			</text>
		</switch>
		<switch>
			<text xml:space="preserve" systemLanguage="it"
				style="font-size:12.99374676px;text-align:center;text-anchor:middle"
				x="774.33337" y="435.36639" id="text2310" ><tspan
				sodipodi:role="line" id="tspan2312" x="774.33337" y="435.36639"
				style="text-anchor:start;text-align:start"><tspan x="774.33337" y="435.36639"
				style="font-size:23px;font-style:normal;text-anchor:start;text-align:start"
				id="tspan2314">Chiave Pubblica </tspan></tspan><tspan sodipodi:role="line"
				id="tspan2318" x="842.74182" y="464.3703" style="text-anchor:start;text-align:start"><tspan x="842.74182"
				y="464.3703"
				style="font-size:23px;font-style:normal;text-anchor:start;text-align:start"
				id="tspan2320">di </tspan></tspan><tspan sodipodi:role="line" id="tspan2324"
				x="790.48944" y="493.37421" style="text-anchor:start;text-align:start"><tspan x="790.48944" y="493.37421"
				style="font-size:23px;font-style:normal;text-anchor:start;text-align:start"
				id="tspan2326">Mario Rossi</tspan></tspan></text>
			<text xml:space="preserve" systemLanguage="zh"
				style="font-size:12.99374676px;text-align:center;text-anchor:middle"
				x="774.33337" y="435.36639" id="text2310" ><tspan
				sodipodi:role="line" id="tspan2312" x="774.33337" y="435.36639"
				style="text-anchor:start;text-align:start"><tspan x="774.33337" y="435.36639"
				style="font-size:23px;font-style:normal;text-anchor:start;text-align:start"
				id="tspan2314"> </tspan></tspan><tspan sodipodi:role="line" id="tspan2318"
				x="842.74182" y="464.3703" style="text-anchor:start;text-align:start"><tspan x="770" y="464.3703"
				style="font-size:23px;font-style:normal;text-anchor:start;text-align:start"
				id="tspan2320">鮑伯的公開金鑰 </tspan></tspan><tspan sodipodi:role="line" id="tspan2324"
				x="790.48944" y="493.37421" style="text-anchor:start;text-align:start"><tspan x="790.48944" y="493.37421"
				style="font-size:23px;font-style:normal;text-anchor:start;text-align:start"
				id="tspan2326"> </tspan></tspan></text>
			<text xml:space="preserve"
				style="font-size:12.99374676px;text-align:center;text-anchor:middle"
				x="774.33337" y="435.36639" id="text2310" >
				<tspan x="805" y="435.36639" style="font-size:23px;font-style:normal;text-anchor:start;text-align:start" id="tspan2314">Public Key </tspan>
				<tspan x="845" y="464.3703" style="font-size:23px;font-style:normal;text-anchor:start;text-align:start" id="tspan2320">of </tspan>
				<tspan x="800" y="493.37421" style="font-size:23px;font-style:normal;text-anchor:start;text-align:start" id="tspan2326">Mario Rossi</tspan>
			</text>
		</switch>
		<switch>
			<text xml:space="preserve" systemLanguage="it"
				style="font-size:12.99374676px;text-align:start;text-anchor:start"
				x="84.179695" y="471.89523" id="text2328" ><tspan
				sodipodi:role="line" id="tspan2330" x="84.179695" y="471.89523"><tspan
				x="84.179695" y="471.89523"
				style="font-size:23px;font-style:normal;text-anchor:start;text-align:start"
				id="tspan2332">Chiave Pubblica </tspan><tspan dx="0" x="245.51389" y="471.89523"
				style="font-size:23px;font-style:normal;text-anchor:start;text-align:start"
				id="tspan2334" /></tspan><tspan sodipodi:role="line" id="tspan2336"
				x="152.5881" y="500.89914"><tspan x="152.5881" y="500.89914"
				style="font-size:23px;font-style:normal;text-anchor:start;text-align:start"
				id="tspan2338">di </tspan><tspan dx="0" x="177.10547" y="500.89914"
				style="font-size:23px;font-style:normal;text-anchor:start;text-align:start"
				id="tspan2340" /></tspan><tspan sodipodi:role="line" id="tspan2342"
				x="100.33577" y="529.90302"><tspan x="100.33577" y="529.90302"
				style="font-size:23px;font-style:normal;text-anchor:start;text-align:start"
				id="tspan2344">Mario Rossi</tspan></tspan></text>
			<text xml:space="preserve" systemLanguage="zh"
				style="font-size:12.99374676px;text-align:start;text-anchor:start"
				x="84.179695" y="471.89523" id="text2328" ><tspan
				sodipodi:role="line" id="tspan2330" x="84.179695" y="471.89523"><tspan
				x="84.179695" y="471.89523"
				style="font-size:23px;font-style:normal;text-anchor:start;text-align:start"
				id="tspan2332"> </tspan><tspan dx="0" x="245.51389" y="471.89523"
				style="font-size:23px;font-style:normal;text-anchor:start;text-align:start"
				id="tspan2334" /></tspan><tspan sodipodi:role="line" id="tspan2336"
				x="152.5881" y="500.89914"><tspan x="80" y="500.89914"
				style="font-size:23px;font-style:normal;text-anchor:start;text-align:start"
				id="tspan2338">鮑伯的公開金鑰 </tspan><tspan dx="0" x="177.10547" y="500.89914"
				style="font-size:23px;font-style:normal;text-anchor:start;text-align:start"
				id="tspan2340" /></tspan><tspan sodipodi:role="line" id="tspan2342"
				x="100.33577" y="529.90302"><tspan x="100.33577" y="529.90302"
				style="font-size:23px;font-style:normal;text-anchor:start;text-align:start"
				id="tspan2344"></tspan></tspan></text>
			<text xml:space="preserve" style="font-size:12.99374676px;text-align:start;text-anchor:start" x="84.179695" y="471.89523" id="text2328" >
				<tspan x="105" y="471.89523" style="font-size:23px;font-style:normal;text-anchor:start;text-align:start" id="tspan2332">Public Key </tspan>
				<tspan x="150" y="500.89914" style="font-size:23px;font-style:normal;text-anchor:start;text-align:start" id="tspan2338">of </tspan>
				<tspan x="100" y="529.90302" style="font-size:23px;font-style:normal;text-anchor:start;text-align:start" id="tspan2344">Mario Rossi</tspan>
			</text>
		</switch>
		<switch>
			<text xml:space="preserve" systemLanguage="it"
				style="font-size:8.52258873px;text-align:start;text-anchor:start;fill:#000080"
				x="686.7276" y="720.13245" id="text2346" transform="scale(1.0620017,0.9416181)">
				<tspan sodipodi:role="line" id="tspan2348" x="686.7276" y="720.13245">
					<tspan x="686.7276" y="720.13245"
					style="font-size:24.85755157px;text-anchor:start;text-align:start"
					id="tspan2350">Documento firmato dal </tspan>
				</tspan>
				<tspan sodipodi:role="line" id="tspan2352" x="696.41327" y="751.20441">
					<tspan x="696.41327" y="751.20441"
					style="font-size:24.85755157px;text-anchor:start;text-align:start"
					id="tspan2354">soggetto certificatore</tspan>
				</tspan>
			</text>
			<text xml:space="preserve" systemLanguage="zh"
				style="font-size:8.52258873px;text-align:start;text-anchor:start;fill:#000080"
				x="686.7276" y="720.13245" id="text2346" transform="scale(1.0620017,0.9416181)">
				<tspan x="655" y="710"
					style="font-size:28px;text-anchor:start;text-align:start" id="tspan2350">經由認證機構核許的憑證</tspan>
				<tspan x="655" y="740"
					style="font-size:18px;text-anchor:start;text-align:start" id="tspan2354">其他人可透過認證機構的公鑰解密核實</tspan>
			</text>
			<text xml:space="preserve"
				style="font-size:8.52258873px;text-align:start;text-anchor:start;fill:#000080"
				x="686.7276" y="720.13245" id="text2346" transform="scale(1.0620017,0.9416181)">
				<tspan sodipodi:role="line" id="tspan2348" x="686.7276" y="720.13245">
					<tspan x="705" y="720"
					style="font-size:26px;text-anchor:start;text-align:start" id="tspan2350">Digitally Signed by </tspan>
				</tspan>
				<tspan sodipodi:role="line" id="tspan2352" x="696.41327" y="751.20441">
					<tspan x="700" y="755"
					style="font-size:26px;text-anchor:start;text-align:start" id="tspan2354">Certificate Authority</tspan>
				</tspan>
			</text>
		</switch>
		<switch>
			<text xml:space="preserve" systemLanguage="it" style="font-size:12.99374676px" x="56" y="263" id="text2356" >
				<tspan x="56" y="263" style="font-size:23px" id="tspan2360">Nome: </tspan>
				<tspan x="160" y="263" style="font-style:italic;font-size:22" id="tspan2404">Mario </tspan>
				<tspan x="56" y="292" style="font-size:23px" id="tspan2368">Cognome:  </tspan>
				<tspan x="160" y="292" style="font-style:italic;font-size:22" id="tspan2370">Rossi</tspan>
				<tspan x="56" y="321" style="font-size:23px" id="tspan2376">Indirizzo: </tspan>
				<tspan x="160" y="321" style="font-style:italic;font-size:22" id="tspan2378">via .......</tspan>
				<tspan x="56" y="350" style="font-size:22;font-style:italic" id="tspan2384">...........................</tspan>
			</text>
			<text xml:space="preserve" systemLanguage="zh"
				style="font-size:12.99374676px" x="56" y="263" id="text2356"
				>
				<tspan x="57" y="263" style="font-size:22px;font-weight:bold;"
					id="tspan2360">名稱: </tspan>
				<tspan x="130" y="263" style="font-size:22" id="tspan2404">鮑伯 </tspan>
				<tspan x="57" y="292" style="font-size:22px;font-weight:bold;"
					id="tspan2368">組織:  </tspan>
				<tspan x="130" y="292" style="font-size:22" id="tspan2370">維基媒體</tspan>
				<tspan x="57" y="321" style="font-size:22px;font-weight:bold"
					id="tspan2376">國家: </tspan>
				<tspan x="130" y="321" style="font-size:22" id="tspan2378">美國</tspan>
				<tspan x="57" y="350" style="font-size:22px;font-weight:bold"
					id="tspan2376">用途: </tspan>
				<tspan x="130" y="350" style="font-size:22" id="tspan2378">用戶端認證</tspan>
			</text>
			<text xml:space="preserve" style="font-size:12.99374676px" x="56" y="263" id="text2356" >
				<tspan x="55" y="263" style="font-size:23px" id="tspan2360">Name: </tspan>
				<tspan x="150" y="263" style="font-style:italic;font-size:22" id="tspan2404">Mario Rossi</tspan>
				<tspan x="55" y="292" style="font-size:23px" id="tspan2368">Organization: </tspan>
				<tspan x="190" y="292" style="font-style:italic;font-size:22" id="tspan2370">Wikimedia</tspan>
				<tspan x="55" y="321" style="font-size:23px" id="tspan2376">Address: </tspan>
				<tspan x="150" y="321" style="font-style:italic;font-size:22" id="tspan2378">via .......</tspan>
				<tspan x="55" y="350" style="font-size:23px" id="tspan2376">Country: </tspan>
				<tspan x="150" y="350" style="font-style:italic;font-size:22" id="tspan2378">United States</tspan>
			</text>
		</switch>
		<switch>
			<text xml:space="preserve" systemLanguage="it" style="font-size:12.99374676px" x="745" y="230" id="text2442">
				<tspan x="745" y="230" style="font-size:23px" id="tspan2446">Nome: </tspan>
				<tspan x="850" y="230" style="font-style:italic;font-size:22px" id="tspan2452">Mario </tspan>
				<tspan x="745" y="259" style="font-size:23px" id="tspan2456">Cognome:  </tspan>
				<tspan x="850" y="259" style="font-size:22px;font-style:italic" id="tspan2458">Rossi</tspan>
				<tspan x="745" y="288" style="font-size:23px" id="tspan2462">Indirizzo: </tspan>
				<tspan x="850" y="288" style="font-size:22px;font-style:italic" id="tspan2464">via .......</tspan>
				<tspan x="745" y="317" style="font-size:22px;font-style:italic" id="tspan2468">...........................</tspan>
			</text>
			<text xml:space="preserve" systemLanguage="zh" style="font-size:12.99374676px" x="745" y="230" id="text2442">
				<tspan x="745" y="220" style="font-size:22px;font-weight:bold"
					id="tspan2446">名稱: </tspan>
				<tspan x="810" y="220" style="font-size:22px" id="tspan2452">鮑伯 </tspan>
				<tspan x="745" y="249" style="font-size:22px;font-weight:bold"
					id="tspan2456">組織:  </tspan>
				<tspan x="810" y="249" style="font-size:22px" id="tspan2458">維基媒體</tspan>
				<tspan x="745" y="278" style="font-size:22px;font-weight:bold"
					id="tspan2462">國家: </tspan>
				<tspan x="810" y="278" style="font-size:22px" id="tspan2464">美國</tspan>
				<tspan x="745" y="307" style="font-size:22px;font-weight:bold"
					id="tspan2462">用途: </tspan>
				<tspan x="810" y="307" style="font-size:22px" id="tspan2464">用戶端認證</tspan>
				<tspan x="745" y="336" style="font-size:22px;font-weight:bold"
					id="tspan2462">限期: </tspan>
				<tspan x="810" y="336" style="font-size:17px" id="tspan2464">1997/07/01 - 2047/06/30</tspan>
			</text>
			<text xml:space="preserve" style="font-size:12.99374676px" x="745" y="230" id="text2442" >
				<tspan x="740" y="220" style="font-size:23px" id="tspan2446">Name: </tspan>
				<tspan x="830" y="220" style="font-style:italic;font-size:22px" id="tspan2452">Mario Rossi</tspan>
				<tspan x="740" y="249" style="font-size:23px" id="tspan2456">Organization:  </tspan>
				<tspan x="875" y="249" style="font-size:22px;font-style:italic" id="tspan2458">Wikimedia</tspan>
				<tspan x="740" y="278" style="font-size:23px" id="tspan2462">Address: </tspan>
				<tspan x="830" y="278" style="font-size:22px;font-style:italic" id="tspan2464">via .......</tspan>
				<tspan x="740" y="307" style="font-size:23px" id="tspan2462">Country: </tspan>
				<tspan x="830" y="307" style="font-size:22px;font-style:italic" id="tspan2464">United States</tspan>
				<tspan x="740" y="336" style="font-size:23px" id="tspan2462">Validity: </tspan>
				<tspan x="830" y="336" style="font-size:14px;font-style:italic" id="tspan2464">1997/07/01 - 2047/06/30</tspan>
			</text>
		</switch>
	</g>
</svg>